<?xml version="1.0" encoding="UTF-8" standalone="no"?>
<!-- Created with Inkscape (http://www.inkscape.org/) -->

<svg
   width="210mm"
   height="297mm"
   viewBox="0 0 210 297"
   version="1.1"
   id="svg1"
   inkscape:version="1.3.2 (091e20e, 2023-11-25, custom)"
   sodipodi:docname="drawing.svg"
   xmlns:inkscape="http://www.inkscape.org/namespaces/inkscape"
   xmlns:sodipodi="http://sodipodi.sourceforge.net/DTD/sodipodi-0.dtd"
   xmlns="http://www.w3.org/2000/svg"
   xmlns:svg="http://www.w3.org/2000/svg">
  <sodipodi:namedview
     id="namedview1"
     pagecolor="#ffffff"
     bordercolor="#000000"
     borderopacity="0.25"
     inkscape:showpageshadow="2"
     inkscape:pageopacity="0.0"
     inkscape:pagecheckerboard="0"
     inkscape:deskcolor="#d1d1d1"
     inkscape:document-units="mm"
     inkscape:zoom="0.69219276"
     inkscape:cx="397.28818"
     inkscape:cy="561.25984"
     inkscape:window-width="1920"
     inkscape:window-height="991"
     inkscape:window-x="-9"
     inkscape:window-y="-9"
     inkscape:window-maximized="1"
     inkscape:current-layer="layer1" />
  <defs
     id="defs1" />
  <g
     inkscape:label="Layer 1"
     inkscape:groupmode="layer"
     id="layer1">
    <path
       style="fill:#e6e6e6;stroke-width:0.264583"
       d="m 54.806676,190.26681 c -0.217755,-1.79576 -0.565417,-3.17824 -0.848612,-3.3745 -0.350422,-0.24285 -0.289549,-0.28199 0.22582,-0.14518 0.388056,0.10301 1.340556,0.22109 2.116666,0.26241 l 1.411111,0.0751 -0.113232,3.11209 -0.113228,3.11208 H 56.330374 55.17555 Z m 17.984909,-0.0448 c -0.206595,-1.69774 -0.344385,-3.11923 -0.3062,-3.15885 0.03819,-0.0396 0.738159,-0.17897 1.555491,-0.30967 l 1.486061,-0.23763 v 3.39648 3.39647 h -1.179859 -1.179862 z m 9.040354,-17.99167 c -0.438811,-0.55952 -0.426331,-0.572 0.133194,-0.13319 0.339548,0.26629 0.617361,0.54411 0.617361,0.61736 0,0.29035 -0.289695,0.10347 -0.750555,-0.48417 z m 23.416521,0.35283 c 11.78719,-0.0515 31.07532,-0.0515 42.8625,0 11.78719,0.0515 2.14313,0.0937 -21.43125,0.0937 -23.57437,0 -33.218434,-0.0422 -21.43125,-0.0937 z m 65.64606,-0.20584 c 0,-0.2587 0.20915,-0.47037 0.46477,-0.47037 0.34732,0 0.36612,0.11888 0.0744,0.47037 -0.2147,0.25871 -0.42385,0.47037 -0.46477,0.47037 -0.0409,0 -0.0744,-0.21166 -0.0744,-0.47037 z M 59.985519,165.88036 c -0.194982,-0.53357 -0.421077,-1.16045 -0.502433,-1.39305 -0.08136,-0.2326 0.146788,-0.51645 0.506986,-0.63077 0.958467,-0.30421 2.6151,1.31988 2.314006,2.26854 -0.357335,1.12586 -1.876303,0.96554 -2.318559,-0.24472 z m 45.645121,-4.13888 c 0,-0.2876 0.41011,-0.88291 0.91134,-1.32291 l 0.91135,-0.80001 -0.88195,0.99856 c -0.48507,0.54921 -0.82903,1.07837 -0.76435,1.17592 0.0647,0.0976 0.0515,0.24352 -0.0294,0.32436 -0.0808,0.0808 -0.14699,-0.0883 -0.14699,-0.37592 z m 25.21953,-1.5054 c 5.88326,-0.0543 15.40826,-0.0543 21.16666,8e-5 5.7584,0.0544 0.94483,0.0988 -10.69684,0.0988 -11.64167,-5e-5 -16.35309,-0.0445 -10.46982,-0.0989 z m 32.92691,-2.20502 c 0,-0.48507 0.0801,-0.68351 0.17794,-0.44098 0.0979,0.24254 0.0979,0.63942 0,0.88195 -0.0979,0.24253 -0.17794,0.0441 -0.17794,-0.44097 z m -84.094753,-1.25475 c -0.858475,-0.4659 -0.917718,-0.61349 -0.560734,-1.39698 0.219533,-0.48183 0.519438,-0.87605 0.666451,-0.87605 0.147016,0 0.518409,-0.0964 0.82532,-0.21413 0.459076,-0.17617 0.558019,0.074 0.558019,1.41111 0,1.78046 -0.08197,1.83969 -1.489056,1.07605 z M 81.52416,155.738 c 0,-0.52589 0.151905,-0.8297 0.352777,-0.70555 0.19403,0.11991 0.35278,0.43741 0.35278,0.70555 0,0.26814 -0.15875,0.58564 -0.35278,0.70556 -0.200872,0.12414 -0.352777,-0.17967 -0.352777,-0.70556 z m 48.94791,-0.088 c 5.86934,-0.0543 15.47372,-0.0543 21.34306,0 5.86934,0.0543 1.06715,0.0987 -10.67153,0.0987 -11.73868,0 -16.54087,-0.0444 -10.67153,-0.0987 z m -20.63672,-2.02866 c 0.004,-0.77612 0.0761,-1.05208 0.16054,-0.61325 0.0844,0.43882 0.0812,1.07382 -0.007,1.41111 -0.0883,0.33728 -0.15734,-0.0217 -0.15342,-0.79786 z m -20.16945,-0.0294 c 0.01693,-0.41097 0.10052,-0.49456 0.213135,-0.21314 0.101907,0.25466 0.08938,0.55893 -0.02785,0.67616 -0.117226,0.11722 -0.200604,-0.0911 -0.185285,-0.46302 z m 29.2077,-2.88102 c -0.43881,-0.55953 -0.42633,-0.572 0.1332,-0.1332 0.33954,0.2663 0.61736,0.54411 0.61736,0.61736 0,0.29035 -0.2897,0.10348 -0.75056,-0.48416 z m -46.37879,-1.5875 -0.672039,-0.79375 0.79375,0.67203 c 0.745929,0.63155 0.954349,0.91547 0.672039,0.91547 -0.06694,0 -0.42413,-0.35719 -0.79375,-0.79375 z m 91.25442,0.23518 c 0.0169,-0.41096 0.10052,-0.49456 0.21313,-0.21313 0.10191,0.25466 0.0894,0.55893 -0.0279,0.67615 -0.11722,0.11723 -0.2006,-0.0911 -0.18528,-0.46302 z M 39.851386,148.24147 c -0.438811,-0.55952 -0.426331,-0.572 0.133191,-0.13319 0.339551,0.26629 0.617363,0.54411 0.617363,0.61736 0,0.29035 -0.289695,0.10347 -0.750554,-0.48417 z m 51.414058,-0.8583 c 0.101886,-0.16485 0.309951,-0.22266 0.462367,-0.12846 0.403905,0.24963 1.846191,-1.39292 1.529437,-1.7418 -0.147296,-0.16224 -0.05636,-0.17273 0.202089,-0.0233 0.361397,0.20893 0.257339,0.49351 -0.450644,1.23249 -0.833813,0.87031 -2.190541,1.38483 -1.743249,0.6611 z m 15.448806,-1.08197 -0.67204,-0.79375 0.79375,0.67203 c 0.74593,0.63155 0.95435,0.91547 0.67204,0.91547 -0.0669,0 -0.42413,-0.35719 -0.79375,-0.79375 z m -37.58231,-0.88195 c -0.438809,-0.55952 -0.426331,-0.572 0.133194,-0.13319 0.587639,0.46086 0.774514,0.75055 0.484166,0.75055 -0.07326,0 -0.351068,-0.27781 -0.61736,-0.61736 z m -31.29652,-1.4993 c 0,-0.48507 0.08007,-0.68351 0.177935,-0.44098 0.09787,0.24254 0.09787,0.63941 0,0.88195 -0.09786,0.24253 -0.177935,0.0441 -0.177935,-0.44097 z m 61.243548,-0.60229 c 0.438825,-0.0844 1.073822,-0.0812 1.411112,0.007 0.33728,0.0883 -0.0218,0.15734 -0.797866,0.15342 -0.77611,-0.004 -1.052071,-0.0762 -0.613246,-0.16054 z m -33.286935,-1.60257 -0.672039,-0.79375 0.79375,0.67203 c 0.745929,0.63155 0.954349,0.91547 0.672036,0.91547 -0.06694,0 -0.424127,-0.35719 -0.793747,-0.79375 z m -6.875476,-2.39502 c -1.746641,-0.89609 -2.472759,-1.84943 -2.70021,-3.54521 -0.183499,-1.36809 -0.142931,-1.47367 0.470868,-1.22537 2.598743,1.05128 4.461137,0.88877 6.288638,-0.54874 0.520615,-0.40951 1.053351,-0.6378 1.183854,-0.5073 0.343466,0.34347 0.285925,3.0769 -0.08146,3.86978 -0.240409,0.51884 -0.204656,0.60835 0.15436,0.38647 0.319969,-0.19775 0.383326,-0.153 0.201015,0.14199 -0.146421,0.23691 -0.349406,0.34757 -0.451078,0.2459 -0.101674,-0.10168 -0.442963,0.13372 -0.758425,0.5231 -0.890612,1.0993 -2.861887,1.40105 -4.30756,0.65938 z m -6.572051,-6.51262 c 0.0026,-0.97014 0.07116,-1.32515 0.152246,-0.7889 0.08109,0.53624 0.07892,1.32999 -0.0048,1.76389 -0.08374,0.43389 -0.15008,-0.005 -0.147431,-0.97499 z m 49.817154,1.32995 18.34444,-0.10412 -2.82222,-1.60859 c -8.03299,-4.57858 -15.09078,-11.85082 -17.18834,-17.71064 -0.910938,-2.54481 -0.970926,-6.38217 -0.13077,-8.36494 0.64798,-1.52924 2.55428,-3.70416 3.24666,-3.70416 0.7484,0 5.8746,4.03958 8.10316,6.38551 5.84689,6.15483 9.91193,14.24962 11.12049,22.14445 0.24141,1.57699 0.5482,2.86726 0.68175,2.86726 0.47858,0 -0.54815,-5.53682 -1.66816,-8.99584 -2.73147,-8.43584 -8.58904,-16.47511 -15.56782,-21.36619 l -2.23081,-1.56346 1.17248,-0.51549 c 0.69674,-0.30632 2.32059,-0.52121 4.00211,-0.52961 2.48881,-0.0124 3.10699,0.1224 5.13217,1.11939 4.14714,2.04164 7.72802,6.47077 10.41829,12.88622 l 1.3357,3.18524 0.61436,-1.8074 c 2.28468,-6.72142 7.90578,-12.36155 14.31382,-14.36225 6.28233,-1.96146 14.42074,-0.31106 19.02592,3.85828 l 1.65177,1.49545 -2.08444,0.46529 c -11.79193,2.6322 -23.66603,10.37162 -31.15964,20.30954 -3.18677,4.22624 -4.05837,5.70929 -3.47735,5.91681 0.24737,0.0884 -8.91649,0.14776 -20.36413,0.13201 l -20.813883,-0.0286 z m 40.74583,-0.0902 -17.4625,-0.18138 2.74865,-1.83208 c 5.46896,-3.64527 12.32664,-5.53333 19.38864,-5.33809 2.28009,0.063 4.1454,0.0121 4.14514,-0.11325 -0.001,-0.48196 -5.61469,-0.68596 -8.64354,-0.31412 -5.67485,0.69669 -10.85509,2.51929 -15.69851,5.52332 l -1.5874,0.98456 0.67079,-1.04267 c 1.62612,-2.52759 5.29029,-6.89959 7.84379,-9.35902 6.96903,-6.71228 15.84601,-11.66203 24.67585,-13.75912 l 3.07737,-0.73087 0.80852,0.99622 c 2.17571,2.68083 4.02797,7.92442 4.01687,11.37141 -0.0126,3.92697 -2.14423,9.28879 -4.88225,12.2809 l -1.36294,1.48941 4.62451,0.10925 4.62451,0.10924 -4.7625,-0.006 c -2.61938,-0.003 -12.62062,-0.0878 -22.225,-0.18755 z"
       id="path6" />
    <path
       style="fill:#534e57;stroke-width:0.264583"
       d="m 55.330411,186.7252 c 0.242535,-0.0979 0.63941,-0.0979 0.881946,0 0.242533,0.0979 0.0441,0.17793 -0.440973,0.17793 -0.485069,0 -0.683506,-0.0801 -0.440973,-0.17793 z m 15.897047,-0.007 c 0.254662,-0.10191 0.558932,-0.0894 0.676159,0.0279 0.117226,0.11723 -0.09113,0.20061 -0.463021,0.18529 -0.410967,-0.0169 -0.494559,-0.10052 -0.213138,-0.21314 z m 3.175,-0.35278 c 0.254662,-0.1019 0.558932,-0.0894 0.676159,0.0279 0.117223,0.11723 -0.09114,0.20061 -0.463021,0.18529 -0.410967,-0.0169 -0.494559,-0.10052 -0.213138,-0.21314 z m 30.873302,-13.42911 c 11.8022,-0.0515 31.01095,-0.0515 42.68611,3e-5 11.67516,0.0516 2.01881,0.0937 -21.45855,0.0937 -23.47736,-1e-5 -33.029759,-0.0422 -21.22756,-0.0937 z m 65.60197,-0.89982 c 0.42963,-0.44637 0.84632,-0.76484 0.92597,-0.70771 0.20587,0.14764 -1.0776,1.5193 -1.42161,1.5193 -0.15703,0 0.066,-0.36521 0.49564,-0.81159 z m -89.007868,-0.0789 c -0.245435,-0.29573 -0.377925,-0.60601 -0.294423,-0.68951 0.0835,-0.0835 0.345591,0.15846 0.582425,0.53769 0.51217,0.82011 0.34136,0.91015 -0.288002,0.15182 z m -0.535114,-18.33592 c 6.6e-5,-9.50736 0.04551,-13.34603 0.100983,-8.53038 0.05547,4.81565 0.05542,12.5944 -1.21e-4,17.28611 -0.05554,4.69171 -0.100928,0.75163 -0.100862,-8.75573 z m 90.663882,0 c 7e-5,-9.50736 0.0455,-13.34603 0.10098,-8.53038 0.0555,4.81565 0.0554,12.5944 -1.1e-4,17.28611 -0.0556,4.69171 -0.10094,0.75163 -0.10087,-8.75573 z m -114.90433,6.3416 c -1.22496,-2.60506 -2.027258,-4.78534 -2.025406,-5.50412 0.0038,-1.47704 0.959966,-9.68285 1.22591,-10.52075 0.26212,-0.82587 3.493735,-2.39144 5.529458,-2.67877 2.897611,-0.40898 3.37081,-0.1261 7.569044,4.52473 3.106856,3.44181 4.506685,4.69282 6.952165,6.21308 1.684112,1.04695 3.062023,2.08817 3.062023,2.31382 0,0.22566 -0.225589,0.71844 -0.501306,1.09507 -0.485521,0.66323 -0.626743,0.62369 -4.484884,-1.25549 -2.190967,-1.06715 -4.594661,-2.48364 -5.341543,-3.14774 l -1.357966,-1.20747 0.25006,1.03108 c 0.137534,0.56709 0.391465,1.41412 0.564293,1.88227 0.172829,0.46816 0.18927,0.97467 0.03654,1.12558 -0.152731,0.15091 -2.163466,0.69664 -4.468302,1.21272 -4.407254,0.98684 -4.786095,0.93697 -4.799822,-0.63185 -0.003,-0.33955 -0.164152,-0.61737 -0.358179,-0.61737 -0.477462,0 -0.446609,1.84018 0.05137,3.06384 0.873019,2.14524 2.062297,5.60079 2.063755,5.99642 7.94e-4,0.22946 -0.35565,0.52867 -0.792213,0.66491 -0.436562,0.13624 -0.873125,0.3616 -0.970139,0.50081 -0.09701,0.1392 -1.0892,-1.68814 -2.204861,-4.06077 z m 40.238714,3.47158 c 0.254662,-0.1019 0.558933,-0.0894 0.676156,0.0279 0.117226,0.11723 -0.09113,0.20061 -0.463021,0.18529 -0.410964,-0.0169 -0.494559,-0.10052 -0.213135,-0.21314 z m 4.233336,0 c 0.25466,-0.1019 0.55893,-0.0894 0.67615,0.0279 0.11723,0.11723 -0.0911,0.20061 -0.46302,0.18529 -0.41096,-0.0169 -0.49456,-0.10052 -0.21313,-0.21314 z m -6.810526,-0.8133 c -0.123592,-0.19998 0.01802,-0.25912 0.331957,-0.13865 0.611159,0.23453 0.722979,0.48739 0.215532,0.48739 -0.182578,0 -0.428947,-0.15693 -0.547489,-0.34874 z m 9.698886,-0.0725 c 0.097,-0.0902 0.97014,-0.86023 1.94028,-1.71112 1.67649,-1.47042 1.70271,-1.48071 0.52917,-0.20757 -0.6791,0.73673 -1.55222,1.50674 -1.94028,1.71112 -0.38805,0.20439 -0.62618,0.29779 -0.52917,0.20757 z m -12.204347,-1.78362 -0.672036,-0.79375 0.79375,0.67204 c 0.745929,0.63155 0.954349,0.91546 0.672036,0.91546 -0.06694,0 -0.42413,-0.35718 -0.79375,-0.79375 z m 16.113227,-2.38125 c 0.51429,-1.07986 0.67724,-1.27999 0.67724,-0.83177 0,0.18928 -0.24689,0.6523 -0.54863,1.02893 -0.51731,0.64569 -0.52465,0.63444 -0.12861,-0.19716 z m -17.858104,-0.0235 c -0.127894,-0.20694 -0.156874,-0.45191 -0.0644,-0.54438 0.09247,-0.0925 0.262136,0.0768 0.377031,0.37624 0.238543,0.62164 0.03523,0.73098 -0.312631,0.16814 z m 18.997434,-4.73903 c 0.002,-1.16417 0.0678,-1.59789 0.14635,-0.96382 0.0785,0.63406 0.0769,1.58656 -0.004,2.11666 -0.0805,0.5301 -0.14473,0.0113 -0.14275,-1.15284 z M 89.6659,151.47527 c 0.01693,-0.41096 0.10052,-0.49456 0.213135,-0.21313 0.101907,0.25466 0.08938,0.55893 -0.02785,0.67615 -0.117226,0.11723 -0.200604,-0.0911 -0.185285,-0.46302 z m 41.36059,-0.0586 c 5.78622,-0.0544 15.15247,-0.0544 20.81389,9e-5 5.66142,0.0545 0.92725,0.099 -10.52039,0.0989 -11.44764,-5e-5 -16.07971,-0.0446 -10.2935,-0.099 z m -12.43281,-2.05803 c 0.0169,-0.41097 0.10052,-0.49456 0.21313,-0.21314 0.10191,0.25466 0.0894,0.55893 -0.0279,0.67616 -0.11722,0.11722 -0.2006,-0.0911 -0.18528,-0.46302 z m -78.371218,-1.11713 -0.855245,-0.97014 0.97014,0.85524 c 0.533577,0.47039 0.97014,0.90695 0.97014,0.97014 0,0.27667 -0.285681,0.0515 -1.085035,-0.85524 z m 50.749958,0.0882 c 0.204383,-0.38806 0.974387,-1.26118 1.711119,-1.94028 1.273138,-1.17354 1.262854,-1.14732 -0.207568,0.52917 -0.850895,0.97014 -1.620899,1.84326 -1.711119,1.94028 -0.09022,0.097 0.0032,-0.14111 0.207568,-0.52917 z m 15.57226,-1.85208 -0.85524,-0.97014 0.97014,0.85524 c 0.90674,0.79936 1.13191,1.08503 0.85524,1.08503 -0.0632,0 -0.49975,-0.43656 -0.97014,-0.97013 z m 24.30549,0.70571 c 5.88326,-0.0543 15.40826,-0.0543 21.16666,8e-5 5.7584,0.0544 0.94483,0.0988 -10.69684,0.0988 -11.64167,-5e-5 -16.35309,-0.0445 -10.46982,-0.0989 z m -36.117613,-2.36195 c 0.376634,-0.30174 0.839655,-0.54863 1.028935,-0.54863 0.44822,0 0.248087,0.16295 -0.831778,0.67724 -0.831591,0.39604 -0.842846,0.3887 -0.197157,-0.12861 z m 3.995838,-1.15707 c 0.634063,-0.0785 1.586565,-0.0769 2.116665,0.004 0.5301,0.0805 0.0113,0.14473 -1.152846,0.14275 -1.164167,-0.002 -1.597885,-0.0678 -0.963819,-0.14635 z m -42.901309,-8.211 c 0,-0.48507 0.08007,-0.68351 0.177935,-0.44097 0.09786,0.24253 0.09786,0.63941 0,0.88194 -0.09786,0.24254 -0.177935,0.0441 -0.177935,-0.44097 z m 8.819444,0 c 0,-0.48507 0.08007,-0.68351 0.177935,-0.44097 0.09787,0.24253 0.09787,0.63941 0,0.88194 -0.09786,0.24254 -0.177935,0.0441 -0.177935,-0.44097 z m 18.16686,-0.79375 c 0.21381,-0.34595 87.51884,-0.34595 87.73265,0 0.0899,0.14552 -19.64991,0.26458 -43.86633,0.26458 -24.21641,0 -43.956257,-0.11906 -43.86632,-0.26458 z m -25.53785,-7.22051 c 0.536244,-0.0811 1.329994,-0.0789 1.76389,0.005 0.433893,0.0837 -0.0048,0.15008 -0.97499,0.14743 -0.97014,-0.003 -1.325144,-0.0712 -0.7889,-0.15225 z"
       id="path4" />
    <path
       style="fill:#2e2d40;stroke-width:0.264583"
       d="m 51.53805,195.44551 c 0,-1.17738 1.346073,-1.7839 3.959051,-1.7839 h 2.390949 v 1.23472 1.23473 h -3.175 c -2.908932,0 -3.175,-0.0574 -3.175,-0.68555 z m 17.991667,0 c 0,-1.17738 1.346073,-1.7839 3.95905,-1.7839 h 2.39095 v 1.23472 1.23473 h -3.175 c -2.908935,0 -3.175,-0.0574 -3.175,-0.68555 z m -13.299059,-8.62724 c -1.978721,-0.22594 -3.70927,-0.52239 -3.845671,-0.65879 -0.22379,-0.22379 5.289613,-22.02083 5.848247,-23.12083 0.140493,-0.27665 0.580993,0.4275 1.103444,1.76389 0.732584,1.87388 1.016728,2.24158 1.803424,2.33369 1.676985,0.19635 2.130856,-1.95114 0.587,-2.77739 -0.370282,-0.19816 -0.664052,-0.73428 -0.664052,-1.21186 0,-0.47106 -0.3175,-1.66197 -0.705556,-2.64648 -0.735494,-1.86596 -0.890045,-3.3967 -0.417986,-4.1399 0.15222,-0.23965 2.084109,-0.84372 4.293087,-1.34237 2.208979,-0.49864 4.126383,-0.97465 4.260894,-1.05778 0.323136,-0.19971 1.731738,1.95636 3.254225,4.98106 2.302446,4.57424 4.592894,12.01474 6.418707,20.85113 1.318805,6.38262 1.471914,5.94071 -2.222403,6.41449 -1.710883,0.21941 -3.589451,0.39893 -4.174598,0.39893 h -1.0639 l -1.151522,-5.20348 c -2.413781,-10.90733 -2.540352,-11.37708 -3.065569,-11.37708 -0.706088,0 -0.7601,0.19177 -2.575041,9.14223 l -1.615615,7.96749 -1.234723,0.0469 c -0.679098,0.0258 -2.853674,-0.13794 -4.832392,-0.36388 z M 45.657945,151.32868 c -2.972607,-0.67089 -6.935242,-4.19688 -7.379808,-6.56662 -0.317447,-1.69215 0.601988,-3.52702 2.245219,-4.48066 0.635876,-0.36903 2.603328,-0.88715 4.372116,-1.15138 4.320619,-0.64543 5.358331,-1.03324 6.624944,-2.47583 0.952383,-1.08471 1.076031,-1.4773 1.076515,-3.41805 5.3e-4,-2.52723 0.782286,-4.41597 2.116119,-5.11328 1.412627,-0.7385 7.626946,-0.42772 9.137968,0.457 2.796698,1.63748 3.415842,4.37303 1.665679,7.35946 -1.102059,1.88052 -1.397537,2.07696 -0.876681,0.58283 0.339204,-0.97304 -0.117002,-3.53831 -0.629251,-3.53831 -0.09491,0 -0.702844,0.40446 -1.35096,0.8988 -1.559795,1.18971 -3.226009,1.43098 -4.939125,0.7152 -1.089361,-0.45517 -1.426652,-0.48021 -1.653505,-0.12277 -0.678823,1.06959 0.231955,3.38703 1.781331,4.53253 l 1.083654,0.80118 -1.061535,0.64556 c -0.73293,0.44572 -1.49515,1.55379 -2.462289,3.57953 -2.685349,5.62464 -6.037702,8.13272 -9.750391,7.29481 z"
       id="path3" />
    <path
       style="fill:#0b0c4e;stroke-width:0.264583"
       d="m 119.70265,159.59855 c -0.96804,-0.67804 -1.04003,-2.28481 -0.13891,-3.10032 0.58514,-0.52954 2.603,-0.58384 21.69584,-0.58384 20.58032,0 21.06645,0.0158 21.75624,0.70556 0.38806,0.38805 0.70556,1.02305 0.70556,1.41111 0,0.38805 -0.3175,1.02305 -0.70556,1.41111 -0.68968,0.68968 -1.17592,0.70555 -21.61733,0.70555 -18.35584,0 -21.00762,-0.0671 -21.69584,-0.54917 z m -23.538213,-3.02328 c -2.012863,-1.63255 -2.172264,-1.89656 -1.577655,-2.61302 0.559528,-0.67419 1.549493,-0.65968 2.122808,0.0311 1.201888,1.44819 1.522888,1.29133 3.9974,-1.95339 1.30991,-1.71762 2.60505,-3.20867 2.87809,-3.31344 0.45465,-0.17447 1.57519,0.60551 1.57519,1.09645 0,0.60394 -6.183153,8.2062 -6.665632,8.19548 -0.311473,-0.007 -1.360061,-0.65637 -2.330201,-1.4432 z m 23.308533,-5.80136 c -0.63973,-0.63973 -0.71309,-1.66489 -0.18918,-2.64382 0.35491,-0.66315 0.96928,-0.68237 21.81755,-0.68237 20.33466,0 21.48277,0.0336 22.03619,0.64514 0.7287,0.8052 0.73778,1.44755 0.0347,2.45137 l -0.54917,0.78405 H 141.3252 c -18.89131,0 -21.36049,-0.0626 -21.85221,-0.55437 z"
       id="path2" />
  </g>
</svg>
