<?xml version="1.0" encoding="UTF-8" standalone="no"?>
<!-- Created with Inkscape (http://www.inkscape.org/) -->

<svg
   version="1.1"
   id="svg1"
   width="533.33331"
   height="361.33334"
   viewBox="0 0 533.33331 361.33334"
   xmlns="http://www.w3.org/2000/svg"
   xmlns:svg="http://www.w3.org/2000/svg">
  <defs
     id="defs1" />
  <g
     id="g1">
    <g
       id="g14">
      <path
         style="fill:#e6e6e6"
         d="m 88.228531,343.90995 c 0,-1.83333 0.302632,-2.58333 0.672515,-1.66666 0.369883,0.91666 0.369883,2.41666 0,3.33333 -0.369883,0.91667 -0.672515,0.16667 -0.672515,-1.66667 z m 67.894729,0.55556 c 0.064,-1.55326 0.37992,-1.8692 0.80556,-0.80556 0.38516,0.9625 0.33779,2.1125 -0.10527,2.55556 -0.44305,0.44305 -0.75818,-0.34445 -0.70029,-1.75 z M 86.684672,334.24329 c 0,-1.16112 -0.75,-2.41375 -1.666667,-2.78363 -1.305413,-0.52675 -1.296342,-0.69533 0.04185,-0.77778 1.901246,-0.11714 3.756939,3.5404 2.456205,4.84113 -0.457261,0.45726 -0.831384,-0.11861 -0.831384,-1.27972 z m 68.105258,-0.44445 c 0.064,-1.55326 0.37992,-1.8692 0.80555,-0.80555 0.38516,0.9625 0.3378,2.1125 -0.10526,2.55555 -0.44306,0.44306 -0.75819,-0.34444 -0.70029,-1.75 z m 35.72466,-57.55556 c -1.6585,-2.11474 -1.61133,-2.1619 0.50341,-0.5034 1.28333,1.00646 2.33333,2.05646 2.33333,2.33333 0,1.09738 -1.09491,0.39107 -2.83674,-1.82993 z m 88.5034,1.33353 c 44.55,-0.1948 117.45,-0.1948 162,0 44.54999,0.1948 8.1,0.35418 -81,0.35418 -89.1,0 -125.55,-0.15938 -81,-0.35418 z m 248.1111,-0.77797 c 0,-0.97778 0.79048,-1.77778 1.75661,-1.77778 1.31267,0 1.38373,0.4493 0.28119,1.77778 -0.81149,0.97778 -1.60196,1.77778 -1.75661,1.77778 -0.15465,0 -0.28119,-0.8 -0.28119,-1.77778 z M 280.46244,236.60027 c 0,-1.08699 1.55,-3.33699 3.44444,-5 l 3.44445,-3.02365 -3.33334,3.77408 c -1.83333,2.07575 -3.13333,4.07575 -2.88889,4.44445 0.24445,0.36869 0.19445,0.92036 -0.11111,1.22591 -0.30555,0.30556 -0.55555,-0.3338 -0.55555,-1.42079 z m 95.3179,-5.68972 c 22.23595,-0.20533 58.23595,-0.20518 79.99999,3.2e-4 21.76404,0.2055 3.57099,0.37349 -40.42901,0.37332 -44,-1.7e-4 -61.80694,-0.16831 -39.57098,-0.37364 z m 124.44817,-8.33393 c 0,-1.83334 0.30263,-2.58334 0.67252,-1.66667 0.36988,0.91667 0.36988,2.41667 0,3.33333 -0.36989,0.91667 -0.67252,0.16667 -0.67252,-1.66666 z m -309.43858,-8.77778 c 0.064,-1.55326 0.37992,-1.8692 0.80555,-0.80556 0.38516,0.9625 0.33779,2.1125 -0.10526,2.55556 -0.44306,0.44305 -0.75819,-0.34445 -0.70029,-1.75 z m 183.56139,-0.22148 c 22.18333,-0.20525 58.48333,-0.20525 80.66667,0 22.18333,0.20525 4.03333,0.37318 -40.33334,0.37318 -44.36666,0 -62.51666,-0.16793 -40.33333,-0.37318 z m -77.99708,-7.66741 c 0.0148,-2.93333 0.28784,-3.97634 0.60677,-2.31779 0.31892,1.65855 0.30681,4.05855 -0.0269,5.33333 -0.33372,1.27479 -0.59466,-0.0822 -0.57986,-3.01554 z m -76.23098,-0.11111 c 0.064,-1.55326 0.37992,-1.8692 0.80555,-0.80556 0.38516,0.9625 0.3378,2.1125 -0.10526,2.55556 -0.44306,0.44305 -0.75819,-0.34445 -0.70029,-1.75 z m 110.39132,-10.88889 c -1.65849,-2.11474 -1.61133,-2.1619 0.50341,-0.50341 1.28333,1.00646 2.33333,2.05646 2.33333,2.33333 0,1.09738 -1.09491,0.39108 -2.83674,-1.82992 z m -175.28993,-6 -2.53999,-3 3,2.53998 c 2.81926,2.38696 3.60699,3.46002 2.53999,3.46002 -0.25301,0 -1.60301,-1.35 -3,-3 z m 344.8986,0.88889 c 0.064,-1.55326 0.37992,-1.8692 0.80555,-0.80556 0.38516,0.9625 0.3378,2.1125 -0.10526,2.55556 -0.44306,0.44305 -0.75819,-0.34445 -0.70029,-1.75 z M 31.847933,185.57662 c -1.658494,-2.11475 -1.611333,-2.16191 0.503407,-0.50341 1.283334,1.00646 2.333334,2.05646 2.333334,2.33333 0,1.09738 -1.094914,0.39107 -2.836741,-1.82992 z m 194.320847,-3.24398 c 0.38508,-0.62307 1.17147,-0.84156 1.74753,-0.48553 1.52657,0.94347 6.97773,-5.26458 5.78055,-6.58318 -0.55671,-0.61317 -0.213,-0.65284 0.7638,-0.0882 1.36591,0.78963 0.97262,1.86523 -1.70322,4.65821 -3.15142,3.28938 -8.27921,5.23402 -6.58866,2.49866 z m 58.3892,-4.08936 -2.53999,-3 3,2.53998 c 2.81926,2.38696 3.60699,3.46002 2.53999,3.46002 -0.25301,0 -1.60301,-1.35 -3,-3 z m -142.04339,-3.33333 c -1.65849,-2.11474 -1.61133,-2.1619 0.50341,-0.50341 2.221,1.74183 2.9273,2.83674 1.82992,2.83674 -0.27687,0 -1.32687,-1.05 -2.33333,-2.33333 z M 24.228534,169.24328 c 0,-1.83333 0.302631,-2.58333 0.672514,-1.66667 0.369883,0.91667 0.369883,2.41667 0,3.33334 -0.369883,0.91666 -0.672514,0.16666 -0.672514,-1.66667 z m 231.471676,-2.27635 c 1.65855,-0.31892 4.05855,-0.30681 5.33333,0.0269 1.27478,0.33372 -0.0822,0.59466 -3.01555,0.57986 -2.93333,-0.0148 -3.97633,-0.28784 -2.31778,-0.60677 z m -125.80889,-6.05698 -2.53999,-3 3,2.53998 c 2.81926,2.38696 3.60699,3.46002 2.53998,3.46002 -0.253,0 -1.603,-1.35 -2.99999,-3 z M 79.066024,127.24328 c 0.01001,-3.66667 0.26895,-5.00842 0.575423,-2.98167 0.306472,2.02675 0.298282,5.02675 -0.0182,6.66667 -0.316483,1.63992 -0.567233,-0.0183 -0.557223,-3.685 z m 188.285306,5.0266 69.33333,-0.39352 -10.66667,-6.0797 c -30.36092,-17.30487 -57.03601,-44.790534 -64.96381,-66.937856 -3.44291,-9.618197 -3.66964,-24.12159 -0.49425,-31.615529 2.44906,-5.7798 9.65396,-14 12.27083,-14 2.82862,0 22.20321,15.26771 30.62612,24.134223 22.09849,23.262339 37.46243,53.856841 42.03022,83.695582 0.91242,5.96028 2.07193,10.83687 2.57669,10.83687 1.80879,0 -2.07176,-20.92656 -6.30486,-34.000006 -10.32367,-31.883506 -32.46251,-62.26815 -58.83901,-80.754128 l -8.4314,-5.909151 4.4314,-1.9482776 c 2.63338,-1.1577706 8.77075,-1.9699521 15.12611,-2.0016955 9.4065,-0.046983 11.74293,0.4626239 19.39715,4.2307831 15.67425,7.716409 29.20829,24.456437 39.37623,48.703802 l 5.04833,12.038713 2.32197,-6.831118 c 8.63502,-25.403811 29.88014,-46.720815 54.09949,-54.282533 23.74423,-7.4133759 54.50357,-1.1756657 71.90899,14.582478 l 6.24292,5.652087 -7.87823,1.758584 c -44.56792,9.948485 -89.4464,39.199821 -117.76872,76.760462 -12.04447,15.97319 -15.33871,21.57844 -13.14273,22.36278 0.93494,0.33393 -33.70011,0.55844 -76.96677,0.49891 L 198.018,132.66339 Z m 153.99999,-0.34105 -66,-0.68555 10.3886,-6.9244 c 20.67009,-13.77741 46.58887,-20.91338 73.27988,-20.17546 8.61767,0.23826 15.66767,0.0456 15.66667,-0.42804 -0.004,-1.82155 -21.22085,-2.59259 -32.66848,-1.1872 -21.44826,2.63315 -41.02713,9.52173 -59.33296,20.87554 l -5.99963,3.72115 2.5353,-3.9408 c 6.14594,-9.55308 19.99479,-26.077189 29.64582,-35.37266 26.33962,-25.36924 59.89042,-44.076986 93.26303,-52.002964 l 11.63103,-2.762363 3.05582,3.765263 c 8.22316,10.132251 15.22383,29.95053 15.18188,42.978547 -0.0478,14.842084 -8.10418,35.107227 -18.45263,46.415997 l -5.15125,5.62928 17.47846,0.41289 17.47846,0.4129 -18,-0.0233 c -9.9,-0.0128 -47.7,-0.33178 -84,-0.70883 z"
         id="path14" />
      <path
         style="fill:#fcb6b6"
         d="m 90.203509,353.57662 c -0.363475,-1.28333 -1.068829,-6.72342 -1.567452,-12.08909 l -0.906589,-9.75575 5.144268,0.42242 5.144269,0.42242 0.385243,11.66667 0.385247,11.66666 h -3.962063 c -2.632744,0 -4.183787,-0.78286 -4.622923,-2.33333 z m 67.801661,-0.66667 c -0.40167,-1.65 -0.8631,-7.2 -1.0254,-12.33333 l -0.29511,-9.33333 5,-0.41382 5,-0.41382 v 12.74715 12.74715 h -3.97459 c -3.01653,0 -4.15064,-0.72314 -4.7049,-3 z M 107.97909,252.33178 c -0.75545,-2.06534 -1.62512,-4.47445 -1.93261,-5.35357 -1.15018,-3.28845 4.52451,-3.28158 8.07408,0.01 4.40408,4.0837 3.8888,8.09978 -1.11332,8.67715 -2.97374,0.34324 -3.91051,-0.27777 -5.02815,-3.33334 z m 72.70557,-35.80332 c -2.2,-1.00736 -3.29043,-1.85863 -2.42318,-1.89171 0.86725,-0.0331 1.95768,-1.26013 2.42318,-2.7268 0.5408,-1.70391 2.01738,-2.66667 4.08985,-2.66667 2.81795,0 3.24349,0.61225 3.24349,4.66667 0,5.13012 -1.03842,5.50091 -7.33334,2.61851 z m 8.9266,-2.61851 c 0.0272,-2.2 0.326,-2.93858 0.66406,-1.64129 0.33805,1.29729 0.31582,3.09729 -0.0494,4 -0.36523,0.90271 -0.64182,-0.15871 -0.61465,-2.35871 z m -87.83195,-62.81773 c -4.579336,-2.25833 -8.427972,-8.82669 -8.427972,-14.38378 0,-3.88762 0.379094,-4.06968 4.207613,-2.02072 4.969569,2.65964 14.231659,1.72707 19.863629,-2 2.8627,-1.89444 5.49059,-3.44444 5.83975,-3.44444 0.34916,0 1.02146,2.06089 1.494,4.57976 2.5792,13.74833 -10.37455,23.48418 -22.97702,17.26918 z"
         id="path13" />
      <path
         style="fill:#9c9ba6"
         d="m 18.351341,365.57966 c 10.45,-0.22527 27.549999,-0.22527 37.999998,0 10.45,0.22528 1.9,0.4096 -18.999999,0.4096 -20.899999,0 -29.4499989,-0.18432 -18.999999,-0.4096 z m 82.399619,-0.66971 c -1.266035,-4.08388 -1.580015,-8.85684 -0.54035,-8.21429 0.6274,0.38775 1.14072,2.45436 1.14072,4.59246 v 3.88745 l 21,0.40358 21,0.40359 -21.04184,0.29694 c -15.88066,0.22411 -21.16858,-0.11186 -21.55853,-1.36973 z m 67.99999,0 c -1.26604,-4.08388 -1.58001,-8.85684 -0.54034,-8.21429 0.62739,0.38775 1.14072,2.46117 1.14072,4.60759 v 3.90258 l 42.33333,0.37147 42.33333,0.37147 -42.37517,0.31393 c -32.95719,0.24415 -42.49002,-0.0565 -42.89187,-1.35275 z m -84.399612,-8.58576 c 1.283334,-0.33537 3.383334,-0.33537 4.666667,0 1.283333,0.33537 0.233333,0.60976 -2.333333,0.60976 -2.566667,0 -3.616667,-0.27439 -2.333334,-0.60976 z m 67.999992,0 c 1.28333,-0.33537 3.38333,-0.33537 4.66667,0 1.28333,0.33537 0.23333,0.60976 -2.33334,0.60976 -2.56666,0 -3.61666,-0.27439 -2.33333,-0.60976 z m -39.25,-22.65839 c 0.9625,-0.38516 2.1125,-0.33779 2.55556,0.10526 0.44305,0.44306 -0.34445,0.75819 -1.75,0.7003 -1.55326,-0.064 -1.8692,-0.37992 -0.80556,-0.80556 z m 408.91665,-55.08918 c -0.45322,-0.73334 -0.18863,-1.33334 0.58798,-1.33334 0.77661,0 1.41202,0.6 1.41202,1.33334 0,0.73333 -0.26459,1.33333 -0.58797,1.33333 -0.32339,0 -0.9588,-0.6 -1.41203,-1.33333 z m -330.17006,-3.66667 c -1.65849,-2.11474 -1.61133,-2.1619 0.50341,-0.50341 1.28333,1.00646 2.33333,2.05646 2.33333,2.33334 0,1.09738 -1.09491,0.39107 -2.83674,-1.82993 z m -61.51881,-5.83212 c 0.90444,-0.91122 1.98032,-1.32089 2.39084,-0.91038 0.41051,0.41052 -0.32949,1.15607 -1.64445,1.65678 -1.90026,0.72358 -2.05341,0.57042 -0.74639,-0.7464 z m 121.68888,-25.16788 c 0,-0.73333 0.93541,-1.33333 2.07869,-1.33333 1.14328,0 1.70787,0.6 1.25465,1.33333 -0.45323,0.73333 -1.38864,1.33333 -2.07869,1.33333 -0.69006,0 -1.25465,-0.6 -1.25465,-1.33333 z m 8,0 c -1.72358,-1.11386 -1.68839,-1.29532 0.25465,-1.31292 1.24005,-0.0112 2.62546,0.57959 3.07869,1.31292 1.04291,1.68746 -0.72217,1.68746 -3.33334,0 z m 24.66667,-10.66667 c 1.32731,-1.46666 2.7133,-2.66666 3.07997,-2.66666 0.36666,0 -0.41932,1.2 -1.74664,2.66666 -1.32731,1.46667 -2.7133,2.66667 -3.07996,2.66667 -0.36667,0 0.41931,-1.2 1.74663,-2.66667 z m -54.17007,-1 c -1.6585,-2.11474 -1.61134,-2.1619 0.5034,-0.5034 1.28334,1.00646 2.33334,2.05646 2.33334,2.33333 0,1.09738 -1.09492,0.39107 -2.83674,-1.82993 z m 57.14785,-4.49878 c 0.90444,-0.91123 1.98032,-1.3209 2.39083,-0.91038 0.41052,0.41052 -0.32948,1.15606 -1.64444,1.65677 -1.90026,0.72358 -2.05342,0.57043 -0.74639,-0.74639 z M 88.123268,209.79884 c 0.06398,-1.55326 0.37992,-1.8692 0.805556,-0.80556 0.38516,0.9625 0.337792,2.1125 -0.105264,2.55556 -0.443055,0.44305 -0.758187,-0.34445 -0.700292,-1.75 z m 130.561392,0.85647 c 0,-0.69006 0.6,-1.62547 1.33333,-2.07869 0.73334,-0.45323 1.33334,0.11136 1.33334,1.25464 0,1.14328 -0.6,2.07869 -1.33334,2.07869 -0.73333,0 -1.33333,-0.56459 -1.33333,-1.25464 z m -115.99999,-1.41203 c 0,-0.73333 0.63541,-1.33333 1.41202,-1.33333 0.77661,0 1.0412,0.6 0.58798,1.33333 -0.45323,0.73334 -1.08864,1.33334 -1.41203,1.33334 -0.32338,0 -0.58797,-0.6 -0.58797,-1.33334 z m 116.88888,-6.22222 c -0.48889,-0.48889 -0.88889,-1.50889 -0.88889,-2.26667 0,-0.83547 0.62103,-0.75675 1.57778,0.2 0.86778,0.86778 1.26778,1.88778 0.88889,2.26667 -0.37889,0.37889 -1.08889,0.28889 -1.57778,-0.2 z m -69.68224,-19.44445 -2.53998,-3 3,2.53999 c 2.81926,2.38696 3.60699,3.46002 2.53998,3.46002 -0.253,0 -1.603,-1.35 -3,-3.00001 z m 133.22412,-4 c -1.4854,-1.65 -3.17801,-3.9 -3.76135,-5 -1.12529,-2.12192 -0.81836,-1.83171 4.58297,4.33334 1.76685,2.01666 2.91245,3.66666 2.54578,3.66666 -0.36667,0 -1.882,-1.35 -3.3674,-3 z m -53.09744,-1 c 1.32732,-1.46666 2.7133,-2.66666 3.07997,-2.66666 0.36667,0 -0.41932,1.2 -1.74663,2.66666 -1.32732,1.46667 -2.7133,2.66667 -3.07997,2.66667 -0.36667,0 0.41932,-1.2 1.74663,-2.66667 z m -92.12668,-8.33333 -2.53998,-3 3,2.53998 c 2.81926,2.38696 3.60699,3.46002 2.53998,3.46002 -0.253,0 -1.603,-1.35 -3,-3 z M 54.434673,149.6658 c 0.9625,-0.38517 2.1125,-0.3378 2.555555,0.10526 0.443056,0.44305 -0.344444,0.75819 -1.75,0.70029 -1.553257,-0.064 -1.869199,-0.37992 -0.805555,-0.80555 z M 341.71003,132.31929 c 1.29729,-0.33806 3.09729,-0.31582 4,0.0494 0.90271,0.36523 -0.15871,0.64182 -2.35871,0.61465 -2.2,-0.0272 -2.93858,-0.326 -1.64129,-0.66406 z m 46.06749,-0.0751 c 18.56775,-0.20921 48.56775,-0.20901 66.66667,4.3e-4 18.09892,0.20945 2.90713,0.38061 -33.75954,0.38037 -36.66666,-2.4e-4 -51.47487,-0.1716 -32.90713,-0.3808 z M 109.10133,106.99913 c 0.9625,-0.38516 2.1125,-0.33779 2.55556,0.10526 0.44305,0.44306 -0.34445,0.75819 -1.75,0.70029 -1.55326,-0.064 -1.8692,-0.37992 -0.80556,-0.80555 z"
         id="path12" />
      <path
         style="fill:#74748b"
         d="m -1.0821638,367.23235 c 0.889624,-0.88963 253.3051438,-0.89519 254.1947238,-0.006 0.37577,0.37577 -56.81679,0.68321 -127.09456,0.68321 -70.277772,0 -127.472847,-0.30492 -127.1001638,-0.6776 z M 92.351338,356.32419 c 1.283333,-0.33537 3.383333,-0.33537 4.666667,0 1.283333,0.33537 0.233333,0.60976 -2.333334,0.60976 -2.566666,0 -3.616666,-0.27439 -2.333333,-0.60976 z m 67.999992,0 c 1.28333,-0.33537 3.38333,-0.33537 4.66667,0 1.28333,0.33537 0.23333,0.60976 -2.33334,0.60976 -2.56666,0 -3.61666,-0.27439 -2.33333,-0.60976 z m -7.25,-25.32506 c 0.9625,-0.38516 2.1125,-0.33779 2.55556,0.10527 0.44305,0.44305 -0.34445,0.75818 -1.75,0.70029 -1.55326,-0.064 -1.8692,-0.37992 -0.80556,-0.80556 z m 43.78915,-52.08918 c -0.55937,-0.9048 112.99749,-0.89823 267.79417,0.0155 32.26667,0.19046 -14.64792,0.48989 -104.25464,0.6654 -89.60672,0.1755 -163.1995,-0.1309 -163.53953,-0.6809 z m -8.12009,-6.60916 c -0.72358,-1.90027 -0.57043,-2.05342 0.74639,-0.74639 0.91122,0.90444 1.32089,1.98032 0.91038,2.39083 -0.41052,0.41052 -1.15606,-0.32948 -1.65677,-1.64444 z M 256.3767,244.3193 c 1.29729,-0.33806 3.09729,-0.31583 4,0.0494 0.90271,0.36523 -0.15871,0.64182 -2.35871,0.61465 -2.2,-0.0272 -2.93858,-0.326 -1.64129,-0.66405 z m -37.43211,-38.40935 c 0.0272,-2.2 0.326,-2.93858 0.66406,-1.64129 0.33806,1.29729 0.31582,3.09729 -0.0494,4 -0.36523,0.90271 -0.64182,-0.15871 -0.61465,-2.35871 z m 76,0 c 0.0272,-2.2 0.326,-2.93858 0.66406,-1.64129 0.33805,1.29729 0.31582,3.09729 -0.0494,4 -0.36523,0.90271 -0.64182,-0.15871 -0.61465,-2.35871 z m -192.25992,0.58798 c 0,-0.77662 0.6,-1.04121 1.33333,-0.58798 0.73333,0.45322 1.33333,1.08863 1.33333,1.41202 0,0.32339 -0.6,0.58798 -1.33333,0.58798 -0.73333,0 -1.33333,-0.63541 -1.33333,-1.41202 z M 89.456601,200.4655 c 0.06398,-1.55325 0.379921,-1.86919 0.805556,-0.80555 0.385161,0.9625 0.337792,2.1125 -0.105263,2.55555 -0.443056,0.44306 -0.758187,-0.34444 -0.700293,-1.75 z m 52.477519,-4.88888 -3.91612,-4.33334 4.33333,3.91612 c 4.03928,3.65038 4.9462,4.75055 3.91612,4.75055 -0.22946,0 -2.17946,-1.95 -4.33333,-4.33333 z m 152.1696,2.0575 c -0.72358,-1.90027 -0.57043,-2.05342 0.74639,-0.74639 0.91122,0.90444 1.32089,1.98032 0.91038,2.39083 -0.41052,0.41052 -1.15607,-0.32948 -1.65677,-1.64444 z M 90.789935,188.4655 c 0.06398,-1.55325 0.37992,-1.8692 0.805555,-0.80555 0.385161,0.9625 0.337793,2.1125 -0.105263,2.55555 -0.443056,0.44306 -0.758187,-0.34444 -0.700292,-1.75 z M 238.68466,172.71927 c 0,-0.28821 0.93116,-0.88134 2.06925,-1.31806 1.18657,-0.45533 1.72176,-0.2318 1.25465,0.52401 -0.78302,1.26694 -3.3239,1.87393 -3.3239,0.79405 z m 26.66667,-3.47599 c -1.20173,-0.77661 -1.36618,-1.30065 -0.41203,-1.31292 0.87339,-0.0112 1.9588,0.57959 2.41203,1.31292 1.02307,1.65537 0.56149,1.65537 -2,0 z m -8.97463,-0.92399 c 1.29729,-0.33805 3.09729,-0.31582 4,0.0494 0.90271,0.36523 -0.15871,0.64182 -2.35871,0.61465 -2.2,-0.0272 -2.93858,-0.326 -1.64129,-0.66406 z m -65.69204,-31.07601 c 0,-0.73333 0.63541,-1.33333 1.41203,-1.33333 0.77661,0 1.0412,0.6 0.58797,1.33333 -0.45322,0.73333 -1.08863,1.33333 -1.41202,1.33333 -0.32339,0 -0.58798,-0.6 -0.58798,-1.33333 z m 336.75238,-0.9425 c -0.72358,-1.90026 -0.57043,-2.05341 0.74639,-0.74639 0.91123,0.90445 1.3209,1.98032 0.91038,2.39084 -0.41051,0.41052 -1.15606,-0.32948 -1.65677,-1.64445 z M 278.35133,133.5768 c 44.91666,-0.19471 118.41666,-0.19471 163.33332,0 44.91667,0.19472 8.16667,0.35403 -81.66666,0.35403 -89.83333,0 -126.58333,-0.15931 -81.66666,-0.35403 z m -157.35555,-4.49897 c 0.90444,-0.91122 1.98032,-1.3209 2.39083,-0.91038 0.41052,0.41052 -0.32948,1.15606 -1.64444,1.65677 -1.90027,0.72358 -2.05342,0.57043 -0.74639,-0.74639 z"
         id="path11" />
      <path
         style="fill:#534e57"
         d="m 91.768005,330.99913 c 0.9625,-0.38516 2.1125,-0.33779 2.555555,0.10527 0.443056,0.44305 -0.344444,0.75818 -1.75,0.70029 -1.553257,-0.064 -1.869199,-0.37992 -0.805555,-0.80556 z M 526.68465,276.73988 c 0,-0.27688 1.05,-1.32688 2.33333,-2.33334 2.11474,-1.65849 2.1619,-1.61133 0.50341,0.50341 -1.74183,2.221 -2.83674,2.92731 -2.83674,1.82993 z M 188.63499,206.57662 c 0,-35.56667 0.17184,-50.11667 0.38187,-32.33334 0.21003,17.78334 0.21003,46.88334 0,64.66667 -0.21003,17.78333 -0.38187,3.23333 -0.38187,-32.33333 z m 342.66665,0 c 0,-35.56667 0.17184,-50.11667 0.38188,-32.33334 0.21003,17.78334 0.21003,46.88334 0,64.66667 -0.21004,17.78333 -0.38188,3.23333 -0.38188,-32.33333 z m -434.445048,22.48497 -7.828078,-17.11778 2.192879,-21.01693 c 2.144644,-20.55464 2.281208,-21.09325 6.208461,-24.48664 6.173246,-5.33408 22.686616,-9.3337 28.789946,-6.97308 1.57766,0.6102 9.43013,8.30945 17.44993,17.10945 10.92627,11.98921 17.2261,17.65311 25.13153,22.59464 5.80254,3.62705 10.92653,7.14347 11.38665,7.81427 1.19577,1.7433 -0.23722,6.36728 -2.20757,7.12338 -2.6517,1.01755 -28.79209,-12.64315 -34.2712,-17.90978 -2.73654,-2.63041 -5.29671,-4.46138 -5.68927,-4.06883 -0.39255,0.39256 -0.001,3.8011 0.86992,7.57453 0.87102,3.77343 1.31647,7.12798 0.98989,7.45456 -0.32657,0.32657 -7.70639,2.18933 -16.39958,4.13945 -16.58053,3.71948 -18.05545,3.53131 -18.10835,-2.31019 -0.0112,-1.24006 -0.62042,-2.62547 -1.35375,-3.07869 -1.90367,-1.17653 -1.69006,9.52379 0.26126,13.08765 2.04986,3.74383 7.72533,19.76013 7.73293,21.8225 0.003,0.86725 -1.34419,1.99812 -2.99419,2.51304 -1.65,0.51493 -3.3,1.36598 -3.66667,1.89123 -0.36666,0.52526 -4.1893,-6.748 -8.494738,-16.16278 z m 187.161398,3.51503 c 2.48771,-2.56667 4.82311,-4.66667 5.18978,-4.66667 0.36667,0 -1.36873,2.1 -3.85644,4.66667 -2.48772,2.56666 -4.82312,4.66666 -5.18978,4.66666 -0.36667,0 1.36873,-2.1 3.85644,-4.66666 z m 91.66667,-34.99921 c 21.44999,-0.20592 56.54999,-0.20592 77.99999,0 21.45,0.20592 3.9,0.37441 -39,0.37441 -42.89999,0 -60.44999,-0.16849 -38.99999,-0.37441 z m -343.12667,-12.66746 -2.539983,-3 3,2.53998 c 2.81926,2.38696 3.606988,3.46002 2.539983,3.46002 -0.253009,0 -1.603009,-1.35 -3,-3 z m 198.12667,-5.66667 c 2.48771,-2.56667 4.82311,-4.66667 5.18978,-4.66667 0.36667,0 -1.36873,2.1 -3.85645,4.66667 -2.48771,2.56667 -4.82311,4.66667 -5.18977,4.66667 -0.36667,0 1.36873,-2.1 3.85644,-4.66667 z m 145.7621,2.33396 c 21.86916,-0.20566 57.26916,-0.20552 78.66667,3.2e-4 21.3975,0.20584 3.50456,0.37411 -39.76211,0.37393 -43.26666,-1.8e-4 -60.77372,-0.16859 -38.90456,-0.37425 z m -93.22212,-3.33396 -2.53998,-3 3,2.53998 c 2.81926,2.38696 3.60699,3.46002 2.53998,3.46002 -0.25301,0 -1.60301,-1.35 -3,-3 z m -31.45665,-9.91082 c 0.9625,-0.38516 2.1125,-0.33779 2.55556,0.10527 0.44305,0.44305 -0.34445,0.75818 -1.75,0.70029 -1.55326,-0.064 -1.8692,-0.37992 -0.80556,-0.80556 z M 92.228531,137.24328 c 0,-1.83333 0.302632,-2.58333 0.672515,-1.66667 0.369883,0.91667 0.369883,2.41667 0,3.33334 -0.369883,0.91666 -0.672515,0.16666 -0.672515,-1.66667 z m 33.333329,0 c 0,-1.83333 0.30263,-2.58333 0.67251,-1.66667 0.36989,0.91667 0.36989,2.41667 0,3.33334 -0.36988,0.91666 -0.67251,0.16666 -0.67251,-1.66667 z M 97.018005,106.96897 c 1.65,-0.31781 4.349995,-0.31781 5.999995,0 1.65,0.3178 0.3,0.57782 -3,0.57782 -3.299995,0 -4.649995,-0.26002 -2.999995,-0.57782 z"
         id="path10" />
      <path
         style="fill:#2e2d40"
         d="m 76.018005,363.98556 c 0,-4.44991 5.087523,-6.74227 14.963341,-6.74227 H 100.018 v 4.66666 4.66667 H 88.018005 c -10.994394,0 -12,-0.21713 -12,-2.59106 z m 67.999995,0 c 0,-4.44991 5.08752,-6.74227 14.96334,-6.74227 h 9.03666 v 4.66666 4.66667 h -12 c -10.9944,0 -12,-0.21713 -12,-2.59106 z M 93.75384,331.37869 c -7.478624,-0.85394 -14.019289,-1.97441 -14.534811,-2.48994 -0.845823,-0.84582 19.992236,-83.22831 22.103601,-87.3858 0.531,-1.04559 2.19588,1.61576 4.1705,6.66666 2.76882,7.08241 3.84275,8.47212 6.81609,8.82025 6.33821,0.74211 8.05363,-7.37437 2.21858,-10.4972 -1.39949,-0.74898 -2.5098,-2.77525 -2.5098,-4.58026 0,-1.78039 -1.2,-6.28149 -2.66667,-10.00245 -2.77982,-7.05246 -3.36395,-12.83792 -1.57979,-15.64687 0.57532,-0.90578 7.87695,-3.18886 16.22584,-5.07351 8.3489,-1.88465 15.59578,-3.68372 16.10417,-3.99793 1.2213,-0.7548 6.54515,7.39413 12.29943,18.82607 8.70216,17.28846 17.35897,45.41004 24.25968,78.8074 4.98446,24.1233 5.56314,22.45309 -8.39963,24.24374 -6.46633,0.82927 -13.56643,1.50777 -15.77801,1.50777 h -4.02104 l -4.35221,-19.66667 c -9.12295,-41.22459 -9.60133,-43 -11.5864,-43 -2.66868,0 -2.87282,0.7248 -9.73244,34.55332 l -6.10626,30.11335 -4.66667,0.17735 c -2.56667,0.0975 -10.78554,-0.52134 -18.26416,-1.37528 z M 53.793982,197.24478 c -11.235044,-2.53564 -26.211936,-15.8622 -27.892185,-24.8187 -1.199807,-6.39552 2.275228,-13.33046 8.485866,-16.93478 2.40331,-1.39475 9.839351,-3.353 16.524535,-4.35167 16.329898,-2.43943 20.251957,-3.90516 25.039161,-9.35749 3.599552,-4.09966 4.066884,-5.58349 4.068718,-12.91859 0.0024,-9.55173 2.956665,-16.69029 7.997928,-19.32579 5.339062,-2.79118 28.826245,-1.61657 34.537195,1.72723 10.5702,6.18892 12.91027,16.52801 6.29548,27.81529 -4.16526,7.10748 -5.28203,7.84993 -3.31344,2.20283 1.28203,-3.67765 -0.44221,-13.37316 -2.37827,-13.37316 -0.35873,0 -2.65642,1.52867 -5.10599,3.39704 -5.89529,4.49656 -12.19279,5.40846 -18.667555,2.70313 -4.117266,-1.72031 -5.392073,-1.81495 -6.249471,-0.46399 -2.565628,4.04252 0.876684,12.80135 6.732591,17.13081 l 4.095695,3.02808 -4.012095,2.43991 c -2.770133,1.68461 -5.650957,5.87259 -9.306295,13.52894 -10.149342,21.25849 -22.819651,30.73784 -36.851868,27.57091 z"
         id="path9" />
      <path
         style="fill:#0b0c4e"
         d="m 333.648,228.50101 c -3.65873,-2.56267 -3.93083,-8.63553 -0.52502,-11.71774 2.21154,-2.00142 9.83811,-2.20665 82,-2.20665 77.78389,0 79.62126,0.0596 82.22834,2.66666 1.46666,1.46667 2.66666,3.86667 2.66666,5.33334 0,1.46666 -1.2,3.86666 -2.66666,5.33333 -2.60669,2.60668 -4.44445,2.66667 -81.70332,2.66667 -69.37639,0 -79.39885,-0.25369 -82,-2.07561 z m -88.96334,-11.42659 c -7.60767,-6.17025 -8.21013,-7.16809 -5.96279,-9.87597 2.11475,-2.54812 5.85635,-2.49327 8.02321,0.11763 4.54257,5.47346 5.7558,4.8806 15.1083,-7.38289 4.95084,-6.4918 9.84586,-12.12727 10.87782,-12.52327 1.71835,-0.65939 5.95346,2.28857 5.95346,4.14408 0,2.28261 -23.3694,31.01557 -25.19294,30.97504 -1.17722,-0.0262 -5.14039,-2.48075 -8.80706,-5.45462 z m 88.09524,-21.92638 c -2.41789,-2.41788 -2.69513,-6.2925 -0.715,-9.99241 1.34138,-2.50639 3.66343,-2.57902 82.46002,-2.57902 76.85543,0 81.19473,0.12704 83.28641,2.43833 2.75411,3.04325 2.78845,5.47103 0.13105,9.265 l -2.07561,2.96334 h -80.49582 c -71.40024,0 -80.73257,-0.23675 -82.59105,-2.09524 z"
         id="path8" />
    </g>
  </g>
</svg>
