<?xml version="1.0" standalone="no"?>
<!DOCTYPE svg PUBLIC "-//W3C//DTD SVG 20010904//EN"
 "http://www.w3.org/TR/2001/REC-SVG-20010904/DTD/svg10.dtd">
<svg version="1.0" xmlns="http://www.w3.org/2000/svg"
 width="400.000000pt" height="271.000000pt" viewBox="0 0 400.000000 271.000000"
 preserveAspectRatio="xMidYMid meet">
<metadata>
Created by potrace 1.16, written by Peter Selinger 2001-2019
</metadata>
<g transform="translate(0.000000,271.000000) scale(0.100000,-0.100000)"
fill="#000000" stroke="none">
<path d="M0 1355 l0 -1355 2000 0 2000 0 0 1355 0 1355 -2000 0 -2000 0 0
-1355z m2161 1260 c199 -149 345 -357 422 -602 39 -123 59 -278 32 -251 -3 2
-12 45 -20 94 -32 181 -108 360 -216 504 -66 88 -194 213 -273 266 -31 20 -56
41 -56 45 0 20 30 5 111 -56z m1562 -98 c3 -8 -5 -14 -23 -15 -90 -7 -324 -95
-462 -174 -174 -98 -389 -292 -495 -445 l-42 -60 77 43 c147 85 284 124 458
131 127 6 199 -1 189 -18 -4 -5 -37 -7 -83 -3 -200 16 -438 -51 -622 -176 -32
-22 -64 -40 -70 -40 -15 0 28 75 98 170 72 98 237 260 339 333 152 108 340
196 518 243 107 27 111 28 118 11z m-2779 -733 c18 -47 -6 -139 -41 -160 -40
-24 -80 -26 -122 -5 -46 24 -71 64 -71 116 l0 36 30 -16 c53 -28 134 -14 169
29 17 20 27 20 35 0z m476 -629 c0 -50 -13 -57 -50 -27 -19 15 -20 21 -10 43
7 15 21 26 36 27 22 2 24 -2 24 -43z m22 -19 c-9 -18 -11 -16 -11 19 0 33 1
37 10 21 8 -12 8 -25 1 -40z m-592 -210 c0 -8 9 -18 20 -21 24 -8 27 -47 5
-65 -22 -18 -44 -5 -61 37 -15 34 -15 38 2 50 23 17 34 16 34 -1z m410 -742
l0 -105 -32 3 c-28 3 -33 8 -40 38 -3 19 -8 62 -10 95 l-3 60 40 6 c22 3 41 7
43 8 1 0 2 -47 2 -105z m-539 86 l29 0 0 -96 0 -95 -32 3 c-36 3 -40 13 -53
135 -6 59 -5 65 10 59 9 -3 30 -6 46 -6z"/>
</g>
</svg>
